<svg width="200" height="200" viewBox="0 0 200 200" fill="none" xmlns="http://www.w3.org/2000/svg">
<path d="M100 179.95C144.155 179.95 179.95 144.155 179.95 100C179.95 55.8449 144.155 20.05 100 20.05C55.8449 20.05 20.05 55.8449 20.05 100C20.05 144.155 55.8449 179.95 100 179.95Z" stroke="#D8A933" stroke-width="3.075"/>
<path opacity="0.5" d="M100 167.65C137.362 167.65 167.65 137.362 167.65 100C167.65 62.638 137.362 32.3501 100 32.3501C62.638 32.3501 32.3501 62.638 32.3501 100C32.3501 137.362 62.638 167.65 100 167.65Z" stroke="#D8A933" stroke-width="1.23"/>
<path d="M100 23.7401C102.038 23.7401 103.69 22.088 103.69 20.0501C103.69 18.0122 102.038 16.3601 100 16.3601C97.9621 16.3601 96.3101 18.0122 96.3101 20.0501C96.3101 22.088 97.9621 23.7401 100 23.7401Z" fill="#D8A933"/>
<path d="M179.95 103.69C181.988 103.69 183.64 102.038 183.64 100C183.64 97.9621 181.988 96.3101 179.95 96.3101C177.912 96.3101 176.26 97.9621 176.26 100C176.26 102.038 177.912 103.69 179.95 103.69Z" fill="#D8A933"/>
<path d="M20.0501 103.69C22.088 103.69 23.7401 102.038 23.7401 100C23.7401 97.9621 22.088 96.3101 20.0501 96.3101C18.0122 96.3101 16.3601 97.9621 16.3601 100C16.3601 102.038 18.0122 103.69 20.0501 103.69Z" fill="#D8A933"/>
<path d="M100 183.64C102.038 183.64 103.69 181.988 103.69 179.95C103.69 177.912 102.038 176.26 100 176.26C97.9621 176.26 96.3101 177.912 96.3101 179.95C96.3101 181.988 97.9621 183.64 100 183.64Z" fill="#D8A933"/>
<path opacity="0.3" d="M100 159.04V176.26" stroke="#6E8C47" stroke-width="1.599" stroke-linecap="round"/>
<path opacity="0.45" d="M104.92 159.04C127.06 163.96 77.8601 171.34 100 176.26" stroke="#6E8C47" stroke-width="2.091" stroke-linecap="round"/>
<path opacity="0.32" d="M93.8501 167.65H106.15" stroke="#6E8C47" stroke-width="0.984" stroke-linecap="round"/>
<path opacity="0.85" d="M95.0799 159.04C72.9399 163.96 122.14 171.34 99.9999 176.26" stroke="#6E8C47" stroke-width="2.091" stroke-linecap="round"/>
<path d="M100 159.04C118.45 136.9 127.06 107.38 120.91 80.32C114.76 63.1 100 54.49 100 54.49C100 54.49 85.2399 63.1 79.0899 80.32C72.9399 107.38 81.55 136.9 100 159.04Z" fill="#6E8C47"/>
<mask id="mask0_2234_10031" style="mask-type:luminance" maskUnits="userSpaceOnUse" x="77" y="54" width="46" height="106">
<path d="M100 159.04C118.45 136.9 127.06 107.38 120.91 80.32C114.76 63.1 100 54.49 100 54.49C100 54.49 85.2399 63.1 79.0899 80.32C72.9399 107.38 81.55 136.9 100 159.04Z" fill="white"/>
</mask>
<g mask="url(#mask0_2234_10031)">
<path opacity="0.55" d="M100 157.81V55.72" stroke="white" stroke-width="1.968" stroke-linecap="round"/>
<path opacity="0.5" d="M100 84.0099L71.71 72.9399" stroke="white" stroke-width="1.476" stroke-linecap="round"/>
<path opacity="0.5" d="M100 84.0099L128.29 72.9399" stroke="white" stroke-width="1.476" stroke-linecap="round"/>
<path opacity="0.5" d="M100 102.46L69.25 93.8499" stroke="white" stroke-width="1.476" stroke-linecap="round"/>
<path opacity="0.5" d="M100 102.46L130.75 93.8499" stroke="white" stroke-width="1.476" stroke-linecap="round"/>
<path opacity="0.5" d="M100 119.68L70.48 112.3" stroke="white" stroke-width="1.476" stroke-linecap="round"/>
<path opacity="0.5" d="M100 119.68L129.52 112.3" stroke="white" stroke-width="1.476" stroke-linecap="round"/>
<path opacity="0.5" d="M99.9999 135.67L75.3999 129.52" stroke="white" stroke-width="1.476" stroke-linecap="round"/>
<path opacity="0.5" d="M100 135.67L124.6 129.52" stroke="white" stroke-width="1.476" stroke-linecap="round"/>
</g>
</svg>
