<svg width="140" height="168" viewBox="0 0 140 168" fill="none" xmlns="http://www.w3.org/2000/svg">
<path d="M69.9999 125.965C100.909 125.965 125.965 100.909 125.965 69.9999C125.965 39.0913 100.909 14.0349 69.9999 14.0349C39.0913 14.0349 14.0349 39.0913 14.0349 69.9999C14.0349 100.909 39.0913 125.965 69.9999 125.965Z" stroke="#D8A933" stroke-width="2.1525"/>
<path opacity="0.5" d="M70 117.355C96.1535 117.355 117.355 96.1535 117.355 70C117.355 43.8466 96.1535 22.645 70 22.645C43.8466 22.645 22.645 43.8466 22.645 70C22.645 96.1535 43.8466 117.355 70 117.355Z" stroke="#D8A933" stroke-width="0.861"/>
<path d="M70 16.6179C71.4265 16.6179 72.583 15.4615 72.583 14.0349C72.583 12.6084 71.4265 11.4519 70 11.4519C68.5734 11.4519 67.417 12.6084 67.417 14.0349C67.417 15.4615 68.5734 16.6179 70 16.6179Z" fill="#D8A933"/>
<path d="M125.965 72.583C127.392 72.583 128.548 71.4265 128.548 70C128.548 68.5734 127.392 67.417 125.965 67.417C124.539 67.417 123.382 68.5734 123.382 70C123.382 71.4265 124.539 72.583 125.965 72.583Z" fill="#D8A933"/>
<path d="M14.0349 72.583C15.4615 72.583 16.6179 71.4265 16.6179 70C16.6179 68.5734 15.4615 67.417 14.0349 67.417C12.6084 67.417 11.4519 68.5734 11.4519 70C11.4519 71.4265 12.6084 72.583 14.0349 72.583Z" fill="#D8A933"/>
<path d="M70 128.548C71.4265 128.548 72.583 127.392 72.583 125.965C72.583 124.539 71.4265 123.382 70 123.382C68.5734 123.382 67.417 124.539 67.417 125.965C67.417 127.392 68.5734 128.548 70 128.548Z" fill="#D8A933"/>
<path opacity="0.3" d="M70 111.328V123.382" stroke="#6E8C47" stroke-width="1.1193" stroke-linecap="round"/>
<path opacity="0.45" d="M73.4439 111.328C88.9419 114.772 54.5019 119.938 69.9999 123.382" stroke="#6E8C47" stroke-width="1.4637" stroke-linecap="round"/>
<path opacity="0.32" d="M65.6951 117.355H74.3051" stroke="#6E8C47" stroke-width="0.6888" stroke-linecap="round"/>
<path opacity="0.85" d="M66.5561 111.328C51.0581 114.772 85.4981 119.938 70.0001 123.382" stroke="#6E8C47" stroke-width="1.4637" stroke-linecap="round"/>
<path d="M70.0001 111.328C82.9151 95.8298 88.9421 75.1658 84.6371 56.2238C80.3321 44.1698 70.0001 38.1428 70.0001 38.1428C70.0001 38.1428 59.6681 44.1698 55.3631 56.2238C51.0581 75.1658 57.0851 95.8298 70.0001 111.328Z" fill="#6E8C47"/>
<mask id="mask_mc_vert_min" style="mask-type:luminance" maskUnits="userSpaceOnUse" x="53" y="38" width="34" height="74">
<path d="M70.0001 111.328C82.9151 95.8298 88.9421 75.1658 84.6371 56.2238C80.3321 44.1698 70.0001 38.1428 70.0001 38.1428C70.0001 38.1428 59.6681 44.1698 55.3631 56.2238C51.0581 75.1658 57.0851 95.8298 70.0001 111.328Z" fill="white"/>
</mask>
<g mask="url(#mask_mc_vert_min)">
<path opacity="0.55" d="M70 110.467V39.0039" stroke="white" stroke-width="1.3776" stroke-linecap="round"/>
<path opacity="0.5" d="M70 58.8069L50.197 51.0579" stroke="white" stroke-width="1.0332" stroke-linecap="round"/>
<path opacity="0.5" d="M70 58.8069L89.803 51.0579" stroke="white" stroke-width="1.0332" stroke-linecap="round"/>
<path opacity="0.5" d="M70.0001 71.7218L48.4751 65.6948" stroke="white" stroke-width="1.0332" stroke-linecap="round"/>
<path opacity="0.5" d="M70 71.7218L91.525 65.6948" stroke="white" stroke-width="1.0332" stroke-linecap="round"/>
<path opacity="0.5" d="M70.0002 83.7759L49.3362 78.6099" stroke="white" stroke-width="1.0332" stroke-linecap="round"/>
<path opacity="0.5" d="M70 83.7759L90.664 78.6099" stroke="white" stroke-width="1.0332" stroke-linecap="round"/>
<path opacity="0.5" d="M70 94.9688L52.78 90.6638" stroke="white" stroke-width="1.0332" stroke-linecap="round"/>
<path opacity="0.5" d="M70 94.9688L87.22 90.6638" stroke="white" stroke-width="1.0332" stroke-linecap="round"/>
</g>
<path d="M25.8064 160V147.4H28.2184L33.5824 156.292H32.3044L37.5784 147.4H39.9724L40.0084 160H37.2724L37.2544 151.594H37.7584L33.5464 158.668H32.2324L27.9304 151.594H28.5424V160H25.8064ZM47.1558 160.144C46.0518 160.144 45.0798 159.928 44.2398 159.496C43.4118 159.064 42.7698 158.476 42.3138 157.732C41.8578 156.976 41.6298 156.118 41.6298 155.158C41.6298 154.186 41.8518 153.328 42.2958 152.584C42.7518 151.828 43.3698 151.24 44.1498 150.82C44.9298 150.388 45.8118 150.172 46.7958 150.172C47.7438 150.172 48.5958 150.376 49.3518 150.784C50.1198 151.18 50.7258 151.756 51.1698 152.512C51.6138 153.256 51.8358 154.15 51.8358 155.194C51.8358 155.302 51.8298 155.428 51.8178 155.572C51.8058 155.704 51.7938 155.83 51.7818 155.95H43.9158V154.312H50.3058L49.2258 154.798C49.2258 154.294 49.1238 153.856 48.9198 153.484C48.7158 153.112 48.4338 152.824 48.0738 152.62C47.7138 152.404 47.2938 152.296 46.8138 152.296C46.3338 152.296 45.9078 152.404 45.5358 152.62C45.1758 152.824 44.8938 153.118 44.6898 153.502C44.4858 153.874 44.3838 154.318 44.3838 154.834V155.266C44.3838 155.794 44.4978 156.262 44.7258 156.67C44.9658 157.066 45.2958 157.372 45.7158 157.588C46.1478 157.792 46.6518 157.894 47.2278 157.894C47.7438 157.894 48.1938 157.816 48.5778 157.66C48.9738 157.504 49.3338 157.27 49.6578 156.958L51.1518 158.578C50.7078 159.082 50.1498 159.472 49.4778 159.748C48.8058 160.012 48.0318 160.144 47.1558 160.144ZM58.9316 160V158.11L58.7516 157.696V154.312C58.7516 153.712 58.5656 153.244 58.1936 152.908C57.8336 152.572 57.2756 152.404 56.5196 152.404C56.0036 152.404 55.4936 152.488 54.9896 152.656C54.4976 152.812 54.0776 153.028 53.7296 153.304L52.7216 151.342C53.2496 150.97 53.8856 150.682 54.6296 150.478C55.3736 150.274 56.1296 150.172 56.8976 150.172C58.3736 150.172 59.5196 150.52 60.3356 151.216C61.1516 151.912 61.5596 152.998 61.5596 154.474V160H58.9316ZM55.9796 160.144C55.2236 160.144 54.5756 160.018 54.0356 159.766C53.4956 159.502 53.0816 159.148 52.7936 158.704C52.5056 158.26 52.3616 157.762 52.3616 157.21C52.3616 156.634 52.4996 156.13 52.7756 155.698C53.0636 155.266 53.5136 154.93 54.1256 154.69C54.7376 154.438 55.5356 154.312 56.5196 154.312H59.0936V155.95H56.8256C56.1656 155.95 55.7096 156.058 55.4576 156.274C55.2176 156.49 55.0976 156.76 55.0976 157.084C55.0976 157.444 55.2356 157.732 55.5116 157.948C55.7996 158.152 56.1896 158.254 56.6816 158.254C57.1496 158.254 57.5696 158.146 57.9416 157.93C58.3136 157.702 58.5836 157.372 58.7516 156.94L59.1836 158.236C58.9796 158.86 58.6076 159.334 58.0676 159.658C57.5276 159.982 56.8316 160.144 55.9796 160.144ZM63.651 160V146.644H66.459V160H63.651ZM79.4907 160.216C78.5187 160.216 77.6127 160.06 76.7727 159.748C75.9447 159.424 75.2247 158.968 74.6127 158.38C74.0007 157.792 73.5207 157.102 73.1727 156.31C72.8367 155.518 72.6687 154.648 72.6687 153.7C72.6687 152.752 72.8367 151.882 73.1727 151.09C73.5207 150.298 74.0007 149.608 74.6127 149.02C75.2367 148.432 75.9627 147.982 76.7907 147.67C77.6187 147.346 78.5247 147.184 79.5087 147.184C80.6007 147.184 81.5847 147.376 82.4607 147.76C83.3487 148.132 84.0927 148.684 84.6927 149.416L82.8207 151.144C82.3887 150.652 81.9087 150.286 81.3807 150.046C80.8527 149.794 80.2767 149.668 79.6527 149.668C79.0647 149.668 78.5247 149.764 78.0327 149.956C77.5407 150.148 77.1147 150.424 76.7547 150.784C76.3947 151.144 76.1127 151.57 75.9087 152.062C75.7167 152.554 75.6207 153.1 75.6207 153.7C75.6207 154.3 75.7167 154.846 75.9087 155.338C76.1127 155.83 76.3947 156.256 76.7547 156.616C77.1147 156.976 77.5407 157.252 78.0327 157.444C78.5247 157.636 79.0647 157.732 79.6527 157.732C80.2767 157.732 80.8527 157.612 81.3807 157.372C81.9087 157.12 82.3887 156.742 82.8207 156.238L84.6927 157.966C84.0927 158.698 83.3487 159.256 82.4607 159.64C81.5847 160.024 80.5947 160.216 79.4907 160.216ZM85.8381 160V150.316H88.5201V153.052L88.1421 152.26C88.4301 151.576 88.8921 151.06 89.5281 150.712C90.1641 150.352 90.9381 150.172 91.8501 150.172V152.764C91.7301 152.752 91.6221 152.746 91.5261 152.746C91.4301 152.734 91.3281 152.728 91.2201 152.728C90.4521 152.728 89.8281 152.95 89.3481 153.394C88.8801 153.826 88.6461 154.504 88.6461 155.428V160H85.8381ZM98.3769 160V158.11L98.1969 157.696V154.312C98.1969 153.712 98.0109 153.244 97.6389 152.908C97.2789 152.572 96.7209 152.404 95.9649 152.404C95.4489 152.404 94.9389 152.488 94.4349 152.656C93.9429 152.812 93.5229 153.028 93.1749 153.304L92.1669 151.342C92.6949 150.97 93.3309 150.682 94.0749 150.478C94.8189 150.274 95.5749 150.172 96.3429 150.172C97.8189 150.172 98.9649 150.52 99.7809 151.216C100.597 151.912 101.005 152.998 101.005 154.474V160H98.3769ZM95.4249 160.144C94.6689 160.144 94.0209 160.018 93.4809 159.766C92.9409 159.502 92.5269 159.148 92.2389 158.704C91.9509 158.26 91.8069 157.762 91.8069 157.21C91.8069 156.634 91.9449 156.13 92.2209 155.698C92.5089 155.266 92.9589 154.93 93.5709 154.69C94.1829 154.438 94.9809 154.312 95.9649 154.312H98.5389V155.95H96.2709C95.6109 155.95 95.1549 156.058 94.9029 156.274C94.6629 156.49 94.5429 156.76 94.5429 157.084C94.5429 157.444 94.6809 157.732 94.9569 157.948C95.2449 158.152 95.6349 158.254 96.1269 158.254C96.5949 158.254 97.0149 158.146 97.3869 157.93C97.7589 157.702 98.0289 157.372 98.1969 156.94L98.6289 158.236C98.4249 158.86 98.0529 159.334 97.5129 159.658C96.9729 159.982 96.2769 160.144 95.4249 160.144ZM103.438 160V150.1C103.438 149.008 103.762 148.138 104.41 147.49C105.058 146.83 105.982 146.5 107.182 146.5C107.59 146.5 107.98 146.542 108.352 146.626C108.736 146.71 109.06 146.842 109.324 147.022L108.586 149.056C108.43 148.948 108.256 148.864 108.064 148.804C107.872 148.744 107.668 148.714 107.452 148.714C107.044 148.714 106.726 148.834 106.498 149.074C106.282 149.302 106.174 149.65 106.174 150.118V151.018L106.246 152.224V160H103.438ZM101.944 152.692V150.532H108.658V152.692H101.944ZM113.567 160.144C112.427 160.144 111.539 159.856 110.903 159.28C110.267 158.692 109.949 157.822 109.949 156.67V148.174H112.757V156.634C112.757 157.042 112.865 157.36 113.081 157.588C113.297 157.804 113.591 157.912 113.963 157.912C114.407 157.912 114.785 157.792 115.097 157.552L115.853 159.532C115.565 159.736 115.217 159.892 114.809 160C114.413 160.096 113.999 160.144 113.567 160.144ZM108.455 152.476V150.316H115.169V152.476H108.455Z" fill="#6E8C47"/>
</svg>
