<svg width="240" height="344" viewBox="0 0 240 344" fill="none" xmlns="http://www.w3.org/2000/svg">
<path d="M120 215.94C172.986 215.94 215.94 172.986 215.94 120C215.94 67.0139 172.986 24.0601 120 24.0601C67.0139 24.0601 24.0601 67.0139 24.0601 120C24.0601 172.986 67.0139 215.94 120 215.94Z" stroke="#D8A933" stroke-width="3.69"/>
<path opacity="0.5" d="M120 201.18C164.835 201.18 201.18 164.834 201.18 120C201.18 75.1654 164.835 38.8198 120 38.8198C75.1656 38.8198 38.8201 75.1654 38.8201 120C38.8201 164.834 75.1656 201.18 120 201.18Z" stroke="#D8A933" stroke-width="1.476"/>
<path d="M120 28.4881C122.446 28.4881 124.428 26.5056 124.428 24.0601C124.428 21.6145 122.446 19.6321 120 19.6321C117.555 19.6321 115.572 21.6145 115.572 24.0601C115.572 26.5056 117.555 28.4881 120 28.4881Z" fill="#D8A933"/>
<path d="M215.94 124.428C218.385 124.428 220.368 122.446 220.368 120C220.368 117.555 218.385 115.572 215.94 115.572C213.494 115.572 211.512 117.555 211.512 120C211.512 122.446 213.494 124.428 215.94 124.428Z" fill="#D8A933"/>
<path d="M24.0601 124.428C26.5056 124.428 28.4881 122.446 28.4881 120C28.4881 117.555 26.5056 115.572 24.0601 115.572C21.6146 115.572 19.6321 117.555 19.6321 120C19.6321 122.446 21.6146 124.428 24.0601 124.428Z" fill="#D8A933"/>
<path d="M120 220.368C122.446 220.368 124.428 218.385 124.428 215.94C124.428 213.494 122.446 211.512 120 211.512C117.555 211.512 115.572 213.494 115.572 215.94C115.572 218.385 117.555 220.368 120 220.368Z" fill="#D8A933"/>
<path opacity="0.3" d="M120 190.848V211.512" stroke="#6E8C47" stroke-width="1.9188" stroke-linecap="round"/>
<path opacity="0.45" d="M125.904 190.848C152.472 196.752 93.4322 205.608 120 211.512" stroke="#6E8C47" stroke-width="2.5092" stroke-linecap="round"/>
<path opacity="0.32" d="M112.62 201.18H127.38" stroke="#6E8C47" stroke-width="1.1808" stroke-linecap="round"/>
<path opacity="0.85" d="M114.096 190.848C87.528 196.752 146.568 205.608 120 211.512" stroke="#6E8C47" stroke-width="2.5092" stroke-linecap="round"/>
<path d="M120 190.848C142.14 164.28 152.472 128.856 145.092 96.3839C137.712 75.7199 120 65.3879 120 65.3879C120 65.3879 102.288 75.7199 94.908 96.3839C87.528 128.856 97.86 164.28 120 190.848Z" fill="#6E8C47"/>
<mask id="mask_mc_vert_mkt" style="mask-type:luminance" maskUnits="userSpaceOnUse" x="92" y="65" width="56" height="126">
<path d="M120 190.848C142.14 164.28 152.472 128.856 145.092 96.3839C137.712 75.7199 120 65.3879 120 65.3879C120 65.3879 102.288 75.7199 94.908 96.3839C87.528 128.856 97.86 164.28 120 190.848Z" fill="white"/>
</mask>
<g mask="url(#mask_mc_vert_mkt)">
<path opacity="0.55" d="M120 189.372V66.864" stroke="white" stroke-width="2.3616" stroke-linecap="round"/>
<path opacity="0.5" d="M120 100.812L86.052 87.5278" stroke="white" stroke-width="1.7712" stroke-linecap="round"/>
<path opacity="0.5" d="M120 100.812L153.948 87.5278" stroke="white" stroke-width="1.7712" stroke-linecap="round"/>
<path opacity="0.5" d="M120 122.952L83.1001 112.62" stroke="white" stroke-width="1.7712" stroke-linecap="round"/>
<path opacity="0.5" d="M120 122.952L156.9 112.62" stroke="white" stroke-width="1.7712" stroke-linecap="round"/>
<path opacity="0.5" d="M120 143.616L84.5762 134.76" stroke="white" stroke-width="1.7712" stroke-linecap="round"/>
<path opacity="0.5" d="M120 143.616L155.424 134.76" stroke="white" stroke-width="1.7712" stroke-linecap="round"/>
<path opacity="0.5" d="M120 162.804L90.48 155.424" stroke="white" stroke-width="1.7712" stroke-linecap="round"/>
<path opacity="0.5" d="M120 162.804L149.52 155.424" stroke="white" stroke-width="1.7712" stroke-linecap="round"/>
</g>
<path d="M45.8279 292.5V271.5H49.8479L58.7879 286.32H56.6579L65.4479 271.5H69.4379L69.4979 292.5H64.9379L64.9079 278.49H65.7479L58.7279 290.28H56.5379L49.3679 278.49H50.3879V292.5H45.8279ZM81.4102 292.74C79.5702 292.74 77.9502 292.38 76.5502 291.66C75.1702 290.94 74.1002 289.96 73.3402 288.72C72.5802 287.46 72.2002 286.03 72.2002 284.43C72.2002 282.81 72.5702 281.38 73.3102 280.14C74.0702 278.88 75.1002 277.9 76.4002 277.2C77.7002 276.48 79.1702 276.12 80.8102 276.12C82.3902 276.12 83.8102 276.46 85.0702 277.14C86.3502 277.8 87.3602 278.76 88.1002 280.02C88.8402 281.26 89.2102 282.75 89.2102 284.49C89.2102 284.67 89.2002 284.88 89.1802 285.12C89.1602 285.34 89.1402 285.55 89.1202 285.75H76.0102V283.02H86.6602L84.8602 283.83C84.8602 282.99 84.6902 282.26 84.3502 281.64C84.0102 281.02 83.5402 280.54 82.9402 280.2C82.3402 279.84 81.6402 279.66 80.8402 279.66C80.0402 279.66 79.3302 279.84 78.7102 280.2C78.1102 280.54 77.6402 281.03 77.3002 281.67C76.9602 282.29 76.7902 283.03 76.7902 283.89V284.61C76.7902 285.49 76.9802 286.27 77.3602 286.95C77.7602 287.61 78.3102 288.12 79.0102 288.48C79.7302 288.82 80.5702 288.99 81.5302 288.99C82.3902 288.99 83.1402 288.86 83.7802 288.6C84.4402 288.34 85.0402 287.95 85.5802 287.43L88.0702 290.13C87.3302 290.97 86.4002 291.62 85.2802 292.08C84.1602 292.52 82.8702 292.74 81.4102 292.74ZM101.037 292.5V289.35L100.737 288.66V283.02C100.737 282.02 100.427 281.24 99.8066 280.68C99.2066 280.12 98.2766 279.84 97.0166 279.84C96.1566 279.84 95.3066 279.98 94.4666 280.26C93.6466 280.52 92.9466 280.88 92.3666 281.34L90.6866 278.07C91.5666 277.45 92.6266 276.97 93.8666 276.63C95.1066 276.29 96.3666 276.12 97.6466 276.12C100.107 276.12 102.017 276.7 103.377 277.86C104.737 279.02 105.417 280.83 105.417 283.29V292.5H101.037ZM96.1166 292.74C94.8566 292.74 93.7766 292.53 92.8766 292.11C91.9766 291.67 91.2866 291.08 90.8066 290.34C90.3266 289.6 90.0866 288.77 90.0866 287.85C90.0866 286.89 90.3166 286.05 90.7766 285.33C91.2566 284.61 92.0066 284.05 93.0266 283.65C94.0466 283.23 95.3766 283.02 97.0166 283.02H101.307V285.75H97.5266C96.4266 285.75 95.6666 285.93 95.2466 286.29C94.8466 286.65 94.6466 287.1 94.6466 287.64C94.6466 288.24 94.8766 288.72 95.3366 289.08C95.8166 289.42 96.4666 289.59 97.2866 289.59C98.0666 289.59 98.7666 289.41 99.3866 289.05C100.007 288.67 100.457 288.12 100.737 287.4L101.457 289.56C101.117 290.6 100.497 291.39 99.5966 291.93C98.6966 292.47 97.5366 292.74 96.1166 292.74ZM108.902 292.5V270.24H113.582V292.5H108.902ZM135.302 292.86C133.682 292.86 132.172 292.6 130.772 292.08C129.392 291.54 128.192 290.78 127.172 289.8C126.152 288.82 125.352 287.67 124.772 286.35C124.212 285.03 123.932 283.58 123.932 282C123.932 280.42 124.212 278.97 124.772 277.65C125.352 276.33 126.152 275.18 127.172 274.2C128.212 273.22 129.422 272.47 130.802 271.95C132.182 271.41 133.692 271.14 135.332 271.14C137.152 271.14 138.792 271.46 140.252 272.1C141.732 272.72 142.972 273.64 143.972 274.86L140.852 277.74C140.132 276.92 139.332 276.31 138.452 275.91C137.572 275.49 136.612 275.28 135.572 275.28C134.592 275.28 133.692 275.44 132.872 275.76C132.052 276.08 131.342 276.54 130.742 277.14C130.142 277.74 129.672 278.45 129.332 279.27C129.012 280.09 128.852 281 128.852 282C128.852 283 129.012 283.91 129.332 284.73C129.672 285.55 130.142 286.26 130.742 286.86C131.342 287.46 132.052 287.92 132.872 288.24C133.692 288.56 134.592 288.72 135.572 288.72C136.612 288.72 137.572 288.52 138.452 288.12C139.332 287.7 140.132 287.07 140.852 286.23L143.972 289.11C142.972 290.33 141.732 291.26 140.252 291.9C138.792 292.54 137.142 292.86 135.302 292.86ZM145.881 292.5V276.36H150.351V280.92L149.721 279.6C150.201 278.46 150.971 277.6 152.031 277.02C153.091 276.42 154.381 276.12 155.901 276.12V280.44C155.701 280.42 155.521 280.41 155.361 280.41C155.201 280.39 155.031 280.38 154.851 280.38C153.571 280.38 152.531 280.75 151.731 281.49C150.951 282.21 150.561 283.34 150.561 284.88V292.5H145.881ZM166.779 292.5V289.35L166.479 288.66V283.02C166.479 282.02 166.169 281.24 165.549 280.68C164.949 280.12 164.019 279.84 162.759 279.84C161.899 279.84 161.049 279.98 160.209 280.26C159.389 280.52 158.689 280.88 158.109 281.34L156.429 278.07C157.309 277.45 158.369 276.97 159.609 276.63C160.849 276.29 162.109 276.12 163.389 276.12C165.849 276.12 167.759 276.7 169.119 277.86C170.479 279.02 171.159 280.83 171.159 283.29V292.5H166.779ZM161.859 292.74C160.599 292.74 159.519 292.53 158.619 292.11C157.719 291.67 157.029 291.08 156.549 290.34C156.069 289.6 155.829 288.77 155.829 287.85C155.829 286.89 156.059 286.05 156.519 285.33C156.999 284.61 157.749 284.05 158.769 283.65C159.789 283.23 161.119 283.02 162.759 283.02H167.049V285.75H163.269C162.169 285.75 161.409 285.93 160.989 286.29C160.589 286.65 160.389 287.1 160.389 287.64C160.389 288.24 160.619 288.72 161.079 289.08C161.559 289.42 162.209 289.59 163.029 289.59C163.809 289.59 164.509 289.41 165.129 289.05C165.749 288.67 166.199 288.12 166.479 287.4L167.199 289.56C166.859 290.6 166.239 291.39 165.339 291.93C164.439 292.47 163.279 292.74 161.859 292.74ZM175.214 292.5V276C175.214 274.18 175.754 272.73 176.834 271.65C177.914 270.55 179.454 270 181.454 270C182.134 270 182.784 270.07 183.404 270.21C184.044 270.35 184.584 270.57 185.024 270.87L183.794 274.26C183.534 274.08 183.244 273.94 182.924 273.84C182.604 273.74 182.264 273.69 181.904 273.69C181.224 273.69 180.694 273.89 180.314 274.29C179.954 274.67 179.774 275.25 179.774 276.03V277.53L179.894 279.54V292.5H175.214ZM172.724 280.32V276.72H183.914V280.32H172.724ZM192.096 292.74C190.196 292.74 188.716 292.26 187.656 291.3C186.596 290.32 186.066 288.87 186.066 286.95V272.79H190.746V286.89C190.746 287.57 190.926 288.1 191.286 288.48C191.646 288.84 192.136 289.02 192.756 289.02C193.496 289.02 194.126 288.82 194.646 288.42L195.906 291.72C195.426 292.06 194.846 292.32 194.166 292.5C193.506 292.66 192.816 292.74 192.096 292.74ZM183.576 279.96V276.36H194.766V279.96H183.576Z" fill="#6E8C47"/>
<g opacity="0.6">
<path d="M24.3674 320.5L28.1114 312.1H30.0314L33.7874 320.5H31.7474L28.6754 313.084H29.4434L26.3594 320.5H24.3674ZM26.2394 318.7L26.7554 317.224H31.0754L31.6034 318.7H26.2394ZM38.0189 320.5V312.1H39.6269L44.5829 318.148H43.8029V312.1H45.7229V320.5H44.1269L39.1589 314.452H39.9389V320.5H38.0189ZM52.8103 320.5V313.684H50.1223V312.1H57.4423V313.684H54.7543V320.5H52.8103ZM61.8482 320.5V312.1H63.7922V320.5H61.8482ZM68.7737 317.872V316.372H72.1697V317.872H68.7737ZM77.1347 320.5V312.1H79.0787V320.5H77.1347ZM84.4322 320.5V312.1H86.0402L90.9962 318.148H90.2162V312.1H92.1362V320.5H90.5402L85.5722 314.452H86.3522V320.5H84.4322ZM97.4836 320.5V312.1H103.832V313.66H99.4276V320.5H97.4836ZM99.2836 317.44V315.88H103.316V317.44H99.2836ZM108.508 320.5V312.1H110.452V318.916H114.664V320.5H108.508ZM118.053 320.5L121.797 312.1H123.717L127.473 320.5H125.433L122.361 313.084H123.129L120.045 320.5H118.053ZM119.925 318.7L120.441 317.224H124.761L125.289 318.7H119.925ZM131.704 320.5V312.1H133.312L136.888 318.028H136.036L139.552 312.1H141.148L141.172 320.5H139.348L139.336 314.896H139.672L136.864 319.612H135.988L133.12 314.896H133.528V320.5H131.704ZM146.525 320.5V312.1H148.133L151.709 318.028H150.857L154.373 312.1H155.969L155.993 320.5H154.169L154.157 314.896H154.493L151.685 319.612H150.809L147.941 314.896H148.349V320.5H146.525ZM160.242 320.5L163.986 312.1H165.906L169.662 320.5H167.622L164.55 313.084H165.318L162.234 320.5H160.242ZM162.114 318.7L162.63 317.224H166.95L167.478 318.7H162.114ZM175.212 320.5V313.684H172.524V312.1H179.844V313.684H177.156V320.5H175.212ZM188.213 320.644C187.549 320.644 186.933 320.536 186.365 320.32C185.805 320.104 185.317 319.8 184.901 319.408C184.493 319.016 184.173 318.556 183.941 318.028C183.717 317.5 183.605 316.924 183.605 316.3C183.605 315.676 183.717 315.1 183.941 314.572C184.173 314.044 184.497 313.584 184.913 313.192C185.329 312.8 185.817 312.496 186.377 312.28C186.937 312.064 187.545 311.956 188.201 311.956C188.865 311.956 189.473 312.064 190.025 312.28C190.585 312.496 191.069 312.8 191.477 313.192C191.893 313.584 192.217 314.044 192.449 314.572C192.681 315.092 192.797 315.668 192.797 316.3C192.797 316.924 192.681 317.504 192.449 318.04C192.217 318.568 191.893 319.028 191.477 319.42C191.069 319.804 190.585 320.104 190.025 320.32C189.473 320.536 188.869 320.644 188.213 320.644ZM188.201 318.988C188.577 318.988 188.921 318.924 189.233 318.796C189.553 318.668 189.833 318.484 190.073 318.244C190.313 318.004 190.497 317.72 190.625 317.392C190.761 317.064 190.829 316.7 190.829 316.3C190.829 315.9 190.761 315.536 190.625 315.208C190.497 314.88 190.313 314.596 190.073 314.356C189.841 314.116 189.565 313.932 189.245 313.804C188.925 313.676 188.577 313.612 188.201 313.612C187.825 313.612 187.477 313.676 187.157 313.804C186.845 313.932 186.569 314.116 186.329 314.356C186.089 314.596 185.901 314.88 185.765 315.208C185.637 315.536 185.573 315.9 185.573 316.3C185.573 316.692 185.637 317.056 185.765 317.392C185.901 317.72 186.085 318.004 186.317 318.244C186.557 318.484 186.837 318.668 187.157 318.796C187.477 318.924 187.825 318.988 188.201 318.988ZM197.618 320.5V312.1H201.206C202.374 312.1 203.282 312.372 203.93 312.916C204.578 313.452 204.902 314.196 204.902 315.148C204.902 315.772 204.754 316.312 204.458 316.768C204.162 317.216 203.742 317.56 203.198 317.8C202.654 318.04 202.006 318.16 201.254 318.16H198.698L199.562 317.308V320.5H197.618ZM202.958 320.5L200.858 317.452H202.934L205.058 320.5H202.958ZM199.562 317.524L198.698 316.612H201.146C201.746 316.612 202.194 316.484 202.49 316.228C202.786 315.964 202.934 315.604 202.934 315.148C202.934 314.684 202.786 314.324 202.49 314.068C202.194 313.812 201.746 313.684 201.146 313.684H198.698L199.562 312.76V317.524ZM211.773 320.5V317.068L212.217 318.244L208.521 312.1H210.585L213.417 316.816H212.229L215.073 312.1H216.981L213.285 318.244L213.717 317.068V320.5H211.773Z" fill="#6E8C47"/>
</g>
<g opacity="0.6">
<path d="M52.1859 340.644C51.5139 340.644 50.8699 340.556 50.2539 340.38C49.6379 340.196 49.1419 339.96 48.7659 339.672L49.4259 338.208C49.7859 338.464 50.2099 338.676 50.6979 338.844C51.1939 339.004 51.6939 339.084 52.1979 339.084C52.5819 339.084 52.8899 339.048 53.1219 338.976C53.3619 338.896 53.5379 338.788 53.6499 338.652C53.7619 338.516 53.8179 338.36 53.8179 338.184C53.8179 337.96 53.7299 337.784 53.5539 337.656C53.3779 337.52 53.1459 337.412 52.8579 337.332C52.5699 337.244 52.2499 337.164 51.8979 337.092C51.5539 337.012 51.2059 336.916 50.8539 336.804C50.5099 336.692 50.1939 336.548 49.9059 336.372C49.6179 336.196 49.3819 335.964 49.1979 335.676C49.0219 335.388 48.9339 335.02 48.9339 334.572C48.9339 334.092 49.0619 333.656 49.3179 333.264C49.5819 332.864 49.9739 332.548 50.4939 332.316C51.0219 332.076 51.6819 331.956 52.4739 331.956C53.0019 331.956 53.5219 332.02 54.0339 332.148C54.5459 332.268 54.9979 332.452 55.3899 332.7L54.7899 334.176C54.3979 333.952 54.0059 333.788 53.6139 333.684C53.2219 333.572 52.8379 333.516 52.4619 333.516C52.0859 333.516 51.7779 333.56 51.5379 333.648C51.2979 333.736 51.1259 333.852 51.0219 333.996C50.9179 334.132 50.8659 334.292 50.8659 334.476C50.8659 334.692 50.9539 334.868 51.1299 335.004C51.3059 335.132 51.5379 335.236 51.8259 335.316C52.1139 335.396 52.4299 335.476 52.7739 335.556C53.1259 335.636 53.4739 335.728 53.8179 335.832C54.1699 335.936 54.4899 336.076 54.7779 336.252C55.0659 336.428 55.2979 336.66 55.4739 336.948C55.6579 337.236 55.7499 337.6 55.7499 338.04C55.7499 338.512 55.6179 338.944 55.3539 339.336C55.0899 339.728 54.6939 340.044 54.1659 340.284C53.6459 340.524 52.9859 340.644 52.1859 340.644ZM60.4383 340.5V332.1H62.0463L65.6223 338.028H64.7703L68.2863 332.1H69.8823L69.9063 340.5H68.0823L68.0703 334.896H68.4063L65.5983 339.612H64.7223L61.8543 334.896H62.2623V340.5H60.4383ZM74.1552 340.5L77.8992 332.1H79.8192L83.5752 340.5H81.5352L78.4632 333.084H79.2312L76.1472 340.5H74.1552ZM76.0272 338.7L76.5432 337.224H80.8632L81.3912 338.7H76.0272ZM87.8067 340.5V332.1H91.3947C92.5627 332.1 93.4707 332.372 94.1187 332.916C94.7667 333.452 95.0907 334.196 95.0907 335.148C95.0907 335.772 94.9427 336.312 94.6467 336.768C94.3507 337.216 93.9307 337.56 93.3867 337.8C92.8427 338.04 92.1947 338.16 91.4427 338.16H88.8867L89.7507 337.308V340.5H87.8067ZM93.1467 340.5L91.0467 337.452H93.1227L95.2467 340.5H93.1467ZM89.7507 337.524L88.8867 336.612H91.3347C91.9347 336.612 92.3827 336.484 92.6787 336.228C92.9747 335.964 93.1227 335.604 93.1227 335.148C93.1227 334.684 92.9747 334.324 92.6787 334.068C92.3827 333.812 91.9347 333.684 91.3347 333.684H88.8867L89.7507 332.76V337.524ZM101.614 340.5V333.684H98.9258V332.1H106.246V333.684H103.558V340.5H101.614ZM119.15 338.58L119.042 336.336L123.062 332.1H125.222L121.598 336L120.518 337.152L119.15 338.58ZM117.41 340.5V332.1H119.342V340.5H117.41ZM123.158 340.5L120.17 336.84L121.442 335.46L125.426 340.5H123.158ZM129.653 340.5V332.1H131.597V340.5H129.653ZM138.69 340.5V333.684H136.002V332.1H143.322V333.684H140.634V340.5H138.69ZM151.631 340.644C150.983 340.644 150.379 340.54 149.819 340.332C149.267 340.116 148.787 339.812 148.379 339.42C147.971 339.028 147.651 338.568 147.419 338.04C147.195 337.512 147.083 336.932 147.083 336.3C147.083 335.668 147.195 335.088 147.419 334.56C147.651 334.032 147.971 333.572 148.379 333.18C148.795 332.788 149.279 332.488 149.831 332.28C150.383 332.064 150.987 331.956 151.643 331.956C152.371 331.956 153.027 332.084 153.611 332.34C154.203 332.588 154.699 332.956 155.099 333.444L153.851 334.596C153.563 334.268 153.243 334.024 152.891 333.864C152.539 333.696 152.155 333.612 151.739 333.612C151.347 333.612 150.987 333.676 150.659 333.804C150.331 333.932 150.047 334.116 149.807 334.356C149.567 334.596 149.379 334.88 149.243 335.208C149.115 335.536 149.051 335.9 149.051 336.3C149.051 336.7 149.115 337.064 149.243 337.392C149.379 337.72 149.567 338.004 149.807 338.244C150.047 338.484 150.331 338.668 150.659 338.796C150.987 338.924 151.347 338.988 151.739 338.988C152.155 338.988 152.539 338.908 152.891 338.748C153.243 338.58 153.563 338.328 153.851 337.992L155.099 339.144C154.699 339.632 154.203 340.004 153.611 340.26C153.027 340.516 152.367 340.644 151.631 340.644ZM165.415 340.5V332.1H167.359V340.5H165.415ZM159.655 340.5V332.1H161.599V340.5H159.655ZM161.455 337.056V335.412H165.559V337.056H161.455ZM172.706 340.5V332.1H179.054V333.66H174.638V338.94H179.21V340.5H172.706ZM174.494 336.996V335.484H178.538V336.996H174.494ZM184.117 340.5V332.1H185.725L190.681 338.148H189.901V332.1H191.821V340.5H190.225L185.257 334.452H186.037V340.5H184.117Z" fill="#6E8C47"/>
</g>
</svg>
