<svg width="260" height="272" viewBox="0 0 260 272" fill="none" xmlns="http://www.w3.org/2000/svg">
<path d="M129.832 179.95C173.987 179.95 209.782 144.155 209.782 100C209.782 55.8449 173.987 20.05 129.832 20.05C85.6769 20.05 49.8821 55.8449 49.8821 100C49.8821 144.155 85.6769 179.95 129.832 179.95Z" stroke="#D8A933" stroke-width="3.075"/>
<path opacity="0.5" d="M129.832 167.65C167.194 167.65 197.482 137.362 197.482 100C197.482 62.638 167.194 32.3501 129.832 32.3501C92.4701 32.3501 62.1821 62.638 62.1821 100C62.1821 137.362 92.4701 167.65 129.832 167.65Z" stroke="#D8A933" stroke-width="1.23"/>
<path d="M129.832 23.7401C131.87 23.7401 133.522 22.088 133.522 20.0501C133.522 18.0122 131.87 16.3601 129.832 16.3601C127.794 16.3601 126.142 18.0122 126.142 20.0501C126.142 22.088 127.794 23.7401 129.832 23.7401Z" fill="#D8A933"/>
<path d="M209.782 103.69C211.82 103.69 213.472 102.038 213.472 100C213.472 97.9621 211.82 96.3101 209.782 96.3101C207.744 96.3101 206.092 97.9621 206.092 100C206.092 102.038 207.744 103.69 209.782 103.69Z" fill="#D8A933"/>
<path d="M49.8821 103.69C51.9201 103.69 53.5721 102.038 53.5721 100C53.5721 97.9621 51.9201 96.3101 49.8821 96.3101C47.8442 96.3101 46.1921 97.9621 46.1921 100C46.1921 102.038 47.8442 103.69 49.8821 103.69Z" fill="#D8A933"/>
<path d="M129.832 183.64C131.87 183.64 133.522 181.988 133.522 179.95C133.522 177.912 131.87 176.26 129.832 176.26C127.794 176.26 126.142 177.912 126.142 179.95C126.142 181.988 127.794 183.64 129.832 183.64Z" fill="#D8A933"/>
<path opacity="0.3" d="M129.832 159.04V176.26" stroke="#6E8C47" stroke-width="1.599" stroke-linecap="round"/>
<path opacity="0.45" d="M134.752 159.04C156.892 163.96 107.692 171.34 129.832 176.26" stroke="#6E8C47" stroke-width="2.091" stroke-linecap="round"/>
<path opacity="0.32" d="M123.682 167.65H135.982" stroke="#6E8C47" stroke-width="0.984" stroke-linecap="round"/>
<path opacity="0.85" d="M124.912 159.04C102.772 163.96 151.972 171.34 129.832 176.26" stroke="#6E8C47" stroke-width="2.091" stroke-linecap="round"/>
<path d="M129.832 159.04C148.282 136.9 156.892 107.38 150.742 80.32C144.592 63.1 129.832 54.49 129.832 54.49C129.832 54.49 115.072 63.1 108.922 80.32C102.772 107.38 111.382 136.9 129.832 159.04Z" fill="#6E8C47"/>
<mask id="mask_mc_vert_left" style="mask-type:luminance" maskUnits="userSpaceOnUse" x="106" y="54" width="47" height="106">
<path d="M129.832 159.04C148.282 136.9 156.892 107.38 150.742 80.32C144.592 63.1 129.832 54.49 129.832 54.49C129.832 54.49 115.072 63.1 108.922 80.32C102.772 107.38 111.382 136.9 129.832 159.04Z" fill="white"/>
</mask>
<g mask="url(#mask_mc_vert_left)">
<path opacity="0.55" d="M129.832 157.81V55.72" stroke="white" stroke-width="1.968" stroke-linecap="round"/>
<path opacity="0.5" d="M129.832 84.0099L101.542 72.9399" stroke="white" stroke-width="1.476" stroke-linecap="round"/>
<path opacity="0.5" d="M129.832 84.0099L158.122 72.9399" stroke="white" stroke-width="1.476" stroke-linecap="round"/>
<path opacity="0.5" d="M129.832 102.46L99.082 93.8499" stroke="white" stroke-width="1.476" stroke-linecap="round"/>
<path opacity="0.5" d="M129.832 102.46L160.582 93.8499" stroke="white" stroke-width="1.476" stroke-linecap="round"/>
<path opacity="0.5" d="M129.832 119.68L100.312 112.3" stroke="white" stroke-width="1.476" stroke-linecap="round"/>
<path opacity="0.5" d="M129.832 119.68L159.352 112.3" stroke="white" stroke-width="1.476" stroke-linecap="round"/>
<path opacity="0.5" d="M129.832 135.67L105.232 129.52" stroke="white" stroke-width="1.476" stroke-linecap="round"/>
<path opacity="0.5" d="M129.832 135.67L154.432 129.52" stroke="white" stroke-width="1.476" stroke-linecap="round"/>
</g>
<path d="M71.1919 240.5V223.7H74.4079L81.5599 235.556H79.8559L86.8879 223.7H90.0799L90.1279 240.5H86.4799L86.4559 229.292H87.1279L81.5119 238.724H79.7599L74.0239 229.292H74.8399V240.5H71.1919ZM99.6578 240.692C98.1858 240.692 96.8898 240.404 95.7698 239.828C94.6658 239.252 93.8098 238.468 93.2018 237.476C92.5938 236.468 92.2898 235.324 92.2898 234.044C92.2898 232.748 92.5858 231.604 93.1778 230.612C93.7858 229.604 94.6098 228.82 95.6498 228.26C96.6898 227.684 97.8658 227.396 99.1778 227.396C100.442 227.396 101.578 227.668 102.586 228.212C103.61 228.74 104.418 229.508 105.01 230.516C105.602 231.508 105.898 232.7 105.898 234.092C105.898 234.236 105.89 234.404 105.874 234.596C105.858 234.772 105.842 234.94 105.826 235.1H95.3378V232.916H103.858L102.418 233.564C102.418 232.892 102.282 232.308 102.01 231.812C101.738 231.316 101.362 230.932 100.882 230.66C100.402 230.372 99.8418 230.228 99.2018 230.228C98.5618 230.228 97.9938 230.372 97.4978 230.66C97.0178 230.932 96.6418 231.324 96.3698 231.836C96.0978 232.332 95.9618 232.924 95.9618 233.612V234.188C95.9618 234.892 96.1138 235.516 96.4178 236.06C96.7378 236.588 97.1778 236.996 97.7378 237.284C98.3138 237.556 98.9858 237.692 99.7538 237.692C100.442 237.692 101.042 237.588 101.554 237.38C102.082 237.172 102.562 236.86 102.994 236.444L104.986 238.604C104.394 239.276 103.65 239.796 102.754 240.164C101.858 240.516 100.826 240.692 99.6578 240.692ZM115.359 240.5V237.98L115.119 237.428V232.916C115.119 232.116 114.871 231.492 114.375 231.044C113.895 230.596 113.151 230.372 112.143 230.372C111.455 230.372 110.775 230.484 110.103 230.708C109.447 230.916 108.887 231.204 108.423 231.572L107.079 228.956C107.783 228.46 108.631 228.076 109.623 227.804C110.615 227.532 111.623 227.396 112.647 227.396C114.615 227.396 116.143 227.86 117.231 228.788C118.319 229.716 118.863 231.164 118.863 233.132V240.5H115.359ZM111.423 240.692C110.415 240.692 109.551 240.524 108.831 240.188C108.111 239.836 107.559 239.364 107.175 238.772C106.791 238.18 106.599 237.516 106.599 236.78C106.599 236.012 106.783 235.34 107.151 234.764C107.535 234.188 108.135 233.74 108.951 233.42C109.767 233.084 110.831 232.916 112.143 232.916H115.575V235.1H112.551C111.671 235.1 111.063 235.244 110.727 235.532C110.407 235.82 110.247 236.18 110.247 236.612C110.247 237.092 110.431 237.476 110.799 237.764C111.183 238.036 111.703 238.172 112.359 238.172C112.983 238.172 113.543 238.028 114.039 237.74C114.535 237.436 114.895 236.996 115.119 236.42L115.695 238.148C115.423 238.98 114.927 239.612 114.207 240.044C113.487 240.476 112.559 240.692 111.423 240.692ZM121.651 240.5V222.692H125.395V240.5H121.651ZM142.771 240.788C141.475 240.788 140.267 240.58 139.147 240.164C138.043 239.732 137.083 239.124 136.267 238.34C135.451 237.556 134.811 236.636 134.347 235.58C133.899 234.524 133.675 233.364 133.675 232.1C133.675 230.836 133.899 229.676 134.347 228.62C134.811 227.564 135.451 226.644 136.267 225.86C137.099 225.076 138.067 224.476 139.171 224.06C140.275 223.628 141.483 223.412 142.795 223.412C144.251 223.412 145.563 223.668 146.731 224.18C147.915 224.676 148.907 225.412 149.707 226.388L147.211 228.692C146.635 228.036 145.995 227.548 145.291 227.228C144.587 226.892 143.819 226.724 142.987 226.724C142.203 226.724 141.483 226.852 140.827 227.108C140.171 227.364 139.603 227.732 139.123 228.212C138.643 228.692 138.267 229.26 137.995 229.916C137.739 230.572 137.611 231.3 137.611 232.1C137.611 232.9 137.739 233.628 137.995 234.284C138.267 234.94 138.643 235.508 139.123 235.988C139.603 236.468 140.171 236.836 140.827 237.092C141.483 237.348 142.203 237.476 142.987 237.476C143.819 237.476 144.587 237.316 145.291 236.996C145.995 236.66 146.635 236.156 147.211 235.484L149.707 237.788C148.907 238.764 147.915 239.508 146.731 240.02C145.563 240.532 144.243 240.788 142.771 240.788ZM151.234 240.5V227.588H154.81V231.236L154.306 230.18C154.69 229.268 155.306 228.58 156.154 228.116C157.002 227.636 158.034 227.396 159.25 227.396V230.852C159.09 230.836 158.946 230.828 158.818 230.828C158.69 230.812 158.554 230.804 158.41 230.804C157.386 230.804 156.554 231.1 155.914 231.692C155.29 232.268 154.978 233.172 154.978 234.404V240.5H151.234ZM167.953 240.5V237.98L167.713 237.428V232.916C167.713 232.116 167.465 231.492 166.969 231.044C166.489 230.596 165.745 230.372 164.737 230.372C164.049 230.372 163.369 230.484 162.697 230.708C162.041 230.916 161.481 231.204 161.017 231.572L159.673 228.956C160.377 228.46 161.225 228.076 162.217 227.804C163.209 227.532 164.217 227.396 165.241 227.396C167.209 227.396 168.737 227.86 169.825 228.788C170.913 229.716 171.457 231.164 171.457 233.132V240.5H167.953ZM164.017 240.692C163.009 240.692 162.145 240.524 161.425 240.188C160.705 239.836 160.153 239.364 159.769 238.772C159.385 238.18 159.193 237.516 159.193 236.78C159.193 236.012 159.377 235.34 159.745 234.764C160.129 234.188 160.729 233.74 161.545 233.42C162.361 233.084 163.425 232.916 164.737 232.916H168.169V235.1H165.145C164.265 235.1 163.657 235.244 163.321 235.532C163.001 235.82 162.841 236.18 162.841 236.612C162.841 237.092 163.025 237.476 163.393 237.764C163.777 238.036 164.297 238.172 164.953 238.172C165.577 238.172 166.137 238.028 166.633 237.74C167.129 237.436 167.489 236.996 167.713 236.42L168.289 238.148C168.017 238.98 167.521 239.612 166.801 240.044C166.081 240.476 165.153 240.692 164.017 240.692ZM174.701 240.5V227.3C174.701 225.844 175.133 224.684 175.997 223.82C176.861 222.94 178.093 222.5 179.693 222.5C180.237 222.5 180.757 222.556 181.253 222.668C181.765 222.78 182.197 222.956 182.549 223.196L181.565 225.908C181.357 225.764 181.125 225.652 180.869 225.572C180.613 225.492 180.341 225.452 180.053 225.452C179.509 225.452 179.085 225.612 178.781 225.932C178.493 226.236 178.349 226.7 178.349 227.324V228.524L178.445 230.132V240.5H174.701ZM172.709 230.756V227.876H181.661V230.756H172.709ZM188.206 240.692C186.686 240.692 185.502 240.308 184.654 239.54C183.806 238.756 183.382 237.596 183.382 236.06V224.732H187.126V236.012C187.126 236.556 187.27 236.98 187.558 237.284C187.846 237.572 188.238 237.716 188.734 237.716C189.326 237.716 189.83 237.556 190.246 237.236L191.254 239.876C190.87 240.148 190.406 240.356 189.862 240.5C189.334 240.628 188.782 240.692 188.206 240.692ZM181.39 230.468V227.588H190.342V230.468H181.39Z" fill="#6E8C47"/>
<g opacity="0.6">
<path d="M68.8773 268.644C68.2053 268.644 67.5613 268.556 66.9453 268.38C66.3293 268.196 65.8333 267.96 65.4573 267.672L66.1173 266.208C66.4773 266.464 66.9013 266.676 67.3893 266.844C67.8853 267.004 68.3853 267.084 68.8893 267.084C69.2733 267.084 69.5813 267.048 69.8133 266.976C70.0533 266.896 70.2293 266.788 70.3413 266.652C70.4533 266.516 70.5093 266.36 70.5093 266.184C70.5093 265.96 70.4213 265.784 70.2453 265.656C70.0693 265.52 69.8373 265.412 69.5493 265.332C69.2613 265.244 68.9413 265.164 68.5893 265.092C68.2453 265.012 67.8973 264.916 67.5453 264.804C67.2013 264.692 66.8853 264.548 66.5973 264.372C66.3093 264.196 66.0733 263.964 65.8893 263.676C65.7133 263.388 65.6253 263.02 65.6253 262.572C65.6253 262.092 65.7533 261.656 66.0093 261.264C66.2733 260.864 66.6653 260.548 67.1853 260.316C67.7133 260.076 68.3733 259.956 69.1653 259.956C69.6933 259.956 70.2133 260.02 70.7253 260.148C71.2373 260.268 71.6893 260.452 72.0813 260.7L71.4813 262.176C71.0893 261.952 70.6973 261.788 70.3053 261.684C69.9133 261.572 69.5293 261.516 69.1533 261.516C68.7773 261.516 68.4693 261.56 68.2293 261.648C67.9893 261.736 67.8173 261.852 67.7133 261.996C67.6093 262.132 67.5573 262.292 67.5573 262.476C67.5573 262.692 67.6453 262.868 67.8213 263.004C67.9973 263.132 68.2293 263.236 68.5173 263.316C68.8053 263.396 69.1213 263.476 69.4653 263.556C69.8173 263.636 70.1653 263.728 70.5093 263.832C70.8613 263.936 71.1813 264.076 71.4693 264.252C71.7573 264.428 71.9893 264.66 72.1653 264.948C72.3493 265.236 72.4413 265.6 72.4413 266.04C72.4413 266.512 72.3093 266.944 72.0453 267.336C71.7813 267.728 71.3853 268.044 70.8573 268.284C70.3373 268.524 69.6773 268.644 68.8773 268.644ZM76.9976 268.5V262.044H78.7856V263.808L78.4496 263.292C78.6736 262.852 78.9896 262.52 79.3976 262.296C79.8136 262.064 80.2856 261.948 80.8136 261.948C81.4056 261.948 81.9216 262.1 82.3616 262.404C82.8096 262.7 83.1056 263.156 83.2496 263.772L82.5896 263.592C82.8056 263.088 83.1496 262.688 83.6216 262.392C84.1016 262.096 84.6496 261.948 85.2656 261.948C85.7776 261.948 86.2296 262.052 86.6216 262.26C87.0216 262.46 87.3336 262.772 87.5576 263.196C87.7896 263.612 87.9056 264.148 87.9056 264.804V268.5H86.0336V265.092C86.0336 264.572 85.9256 264.188 85.7096 263.94C85.4936 263.692 85.1896 263.568 84.7976 263.568C84.5256 263.568 84.2816 263.632 84.0656 263.76C83.8496 263.88 83.6816 264.064 83.5616 264.312C83.4416 264.56 83.3816 264.876 83.3816 265.26V268.5H81.5096V265.092C81.5096 264.572 81.4016 264.188 81.1856 263.94C80.9776 263.692 80.6776 263.568 80.2856 263.568C80.0136 263.568 79.7696 263.632 79.5536 263.76C79.3376 263.88 79.1696 264.064 79.0496 264.312C78.9296 264.56 78.8696 264.876 78.8696 265.26V268.5H76.9976ZM96.9035 268.5V267.24L96.7835 266.964V264.708C96.7835 264.308 96.6595 263.996 96.4115 263.772C96.1715 263.548 95.7995 263.436 95.2955 263.436C94.9515 263.436 94.6115 263.492 94.2755 263.604C93.9475 263.708 93.6675 263.852 93.4355 264.036L92.7635 262.728C93.1155 262.48 93.5395 262.288 94.0355 262.152C94.5315 262.016 95.0355 261.948 95.5475 261.948C96.5315 261.948 97.2955 262.18 97.8395 262.644C98.3835 263.108 98.6555 263.832 98.6555 264.816V268.5H96.9035ZM94.9355 268.596C94.4315 268.596 93.9995 268.512 93.6395 268.344C93.2795 268.168 93.0035 267.932 92.8115 267.636C92.6195 267.34 92.5235 267.008 92.5235 266.64C92.5235 266.256 92.6155 265.92 92.7995 265.632C92.9915 265.344 93.2915 265.12 93.6995 264.96C94.1075 264.792 94.6395 264.708 95.2955 264.708H97.0115V265.8H95.4995C95.0595 265.8 94.7555 265.872 94.5875 266.016C94.4275 266.16 94.3475 266.34 94.3475 266.556C94.3475 266.796 94.4395 266.988 94.6235 267.132C94.8155 267.268 95.0755 267.336 95.4035 267.336C95.7155 267.336 95.9955 267.264 96.2435 267.12C96.4915 266.968 96.6715 266.748 96.7835 266.46L97.0715 267.324C96.9355 267.74 96.6875 268.056 96.3275 268.272C95.9675 268.488 95.5035 268.596 94.9355 268.596ZM103.71 268.5V262.044H105.498V263.868L105.246 263.34C105.438 262.884 105.746 262.54 106.17 262.308C106.594 262.068 107.11 261.948 107.718 261.948V263.676C107.638 263.668 107.566 263.664 107.502 263.664C107.438 263.656 107.37 263.652 107.298 263.652C106.786 263.652 106.37 263.8 106.05 264.096C105.738 264.384 105.582 264.836 105.582 265.452V268.5H103.71ZM115.054 268.596C114.294 268.596 113.702 268.404 113.278 268.02C112.854 267.628 112.642 267.048 112.642 266.28V260.616H114.514V266.256C114.514 266.528 114.586 266.74 114.73 266.892C114.874 267.036 115.07 267.108 115.318 267.108C115.614 267.108 115.866 267.028 116.074 266.868L116.578 268.188C116.386 268.324 116.154 268.428 115.882 268.5C115.618 268.564 115.342 268.596 115.054 268.596ZM111.646 263.484V262.044H116.122V263.484H111.646ZM129.619 266.58L129.511 264.336L133.531 260.1H135.691L132.067 264L130.987 265.152L129.619 266.58ZM127.879 268.5V260.1H129.811V268.5H127.879ZM133.627 268.5L130.639 264.84L131.911 263.46L135.895 268.5H133.627ZM139.99 268.5V262.044H141.862V268.5H139.99ZM140.926 261.144C140.582 261.144 140.302 261.044 140.086 260.844C139.87 260.644 139.762 260.396 139.762 260.1C139.762 259.804 139.87 259.556 140.086 259.356C140.302 259.156 140.582 259.056 140.926 259.056C141.27 259.056 141.55 259.152 141.766 259.344C141.982 259.528 142.09 259.768 142.09 260.064C142.09 260.376 141.982 260.636 141.766 260.844C141.558 261.044 141.278 261.144 140.926 261.144ZM149.599 268.596C148.839 268.596 148.247 268.404 147.823 268.02C147.399 267.628 147.187 267.048 147.187 266.28V260.616H149.059V266.256C149.059 266.528 149.131 266.74 149.275 266.892C149.419 267.036 149.615 267.108 149.863 267.108C150.159 267.108 150.411 267.028 150.619 266.868L151.123 268.188C150.931 268.324 150.699 268.428 150.427 268.5C150.163 268.564 149.887 268.596 149.599 268.596ZM146.191 263.484V262.044H150.667V263.484H146.191ZM158.455 268.596C157.759 268.596 157.139 268.456 156.595 268.176C156.051 267.888 155.623 267.492 155.311 266.988C155.007 266.484 154.855 265.912 154.855 265.272C154.855 264.624 155.007 264.052 155.311 263.556C155.623 263.052 156.051 262.66 156.595 262.38C157.139 262.092 157.759 261.948 158.455 261.948C159.135 261.948 159.727 262.092 160.231 262.38C160.735 262.66 161.107 263.064 161.347 263.592L159.895 264.372C159.727 264.068 159.515 263.844 159.259 263.7C159.011 263.556 158.739 263.484 158.443 263.484C158.123 263.484 157.835 263.556 157.579 263.7C157.323 263.844 157.119 264.048 156.967 264.312C156.823 264.576 156.751 264.896 156.751 265.272C156.751 265.648 156.823 265.968 156.967 266.232C157.119 266.496 157.323 266.7 157.579 266.844C157.835 266.988 158.123 267.06 158.443 267.06C158.739 267.06 159.011 266.992 159.259 266.856C159.515 266.712 159.727 266.484 159.895 266.172L161.347 266.964C161.107 267.484 160.735 267.888 160.231 268.176C159.727 268.456 159.135 268.596 158.455 268.596ZM165.749 268.5V259.596H167.621V263.832L167.201 263.292C167.433 262.86 167.765 262.528 168.197 262.296C168.629 262.064 169.121 261.948 169.673 261.948C170.185 261.948 170.641 262.052 171.041 262.26C171.449 262.46 171.769 262.772 172.001 263.196C172.233 263.612 172.349 264.148 172.349 264.804V268.5H170.477V265.092C170.477 264.572 170.361 264.188 170.129 263.94C169.905 263.692 169.585 263.568 169.169 263.568C168.873 263.568 168.605 263.632 168.365 263.76C168.133 263.88 167.949 264.068 167.813 264.324C167.685 264.58 167.621 264.908 167.621 265.308V268.5H165.749ZM180.657 268.596C179.921 268.596 179.273 268.452 178.713 268.164C178.161 267.876 177.733 267.484 177.429 266.988C177.125 266.484 176.973 265.912 176.973 265.272C176.973 264.624 177.121 264.052 177.417 263.556C177.721 263.052 178.133 262.66 178.653 262.38C179.173 262.092 179.761 261.948 180.417 261.948C181.049 261.948 181.617 262.084 182.121 262.356C182.633 262.62 183.037 263.004 183.333 263.508C183.629 264.004 183.777 264.6 183.777 265.296C183.777 265.368 183.773 265.452 183.765 265.548C183.757 265.636 183.749 265.72 183.741 265.8H178.497V264.708H182.757L182.037 265.032C182.037 264.696 181.969 264.404 181.833 264.156C181.697 263.908 181.509 263.716 181.269 263.58C181.029 263.436 180.749 263.364 180.429 263.364C180.109 263.364 179.825 263.436 179.577 263.58C179.337 263.716 179.149 263.912 179.013 264.168C178.877 264.416 178.809 264.712 178.809 265.056V265.344C178.809 265.696 178.885 266.008 179.037 266.28C179.197 266.544 179.417 266.748 179.697 266.892C179.985 267.028 180.321 267.096 180.705 267.096C181.049 267.096 181.349 267.044 181.605 266.94C181.869 266.836 182.109 266.68 182.325 266.472L183.321 267.552C183.025 267.888 182.653 268.148 182.205 268.332C181.757 268.508 181.241 268.596 180.657 268.596ZM188.383 268.5V262.044H190.171V263.832L189.835 263.292C190.067 262.86 190.399 262.528 190.831 262.296C191.263 262.064 191.755 261.948 192.307 261.948C192.819 261.948 193.275 262.052 193.675 262.26C194.083 262.46 194.403 262.772 194.635 263.196C194.867 263.612 194.983 264.148 194.983 264.804V268.5H193.111V265.092C193.111 264.572 192.995 264.188 192.763 263.94C192.539 263.692 192.219 263.568 191.803 263.568C191.507 263.568 191.239 263.632 190.999 263.76C190.767 263.88 190.583 264.068 190.447 264.324C190.319 264.58 190.255 264.908 190.255 265.308V268.5H188.383Z" fill="#6E8C47"/>
</g>
</svg>