<svg width="230" height="230" viewBox="0 0 230 230" fill="none" xmlns="http://www.w3.org/2000/svg">
<rect x="0.5" y="0.5" width="229" height="229" rx="4.5" stroke="#9747FF" stroke-dasharray="10 5"/>
<mask id="path-2-inside-1_2482_2384" fill="white">
<path d="M20 45C20 31.1929 31.1929 20 45 20H185C198.807 20 210 31.1929 210 45C210 58.8071 198.807 70 185 70H45C31.1929 70 20 58.8071 20 45Z"/>
</mask>
<path d="M20 45C20 31.1929 31.1929 20 45 20H185C198.807 20 210 31.1929 210 45C210 58.8071 198.807 70 185 70H45C31.1929 70 20 58.8071 20 45Z" fill="white"/>
<path d="M20 45M210 45M210 45M20 45M45 20V21H185V20V19H45V20ZM210 45M185 70V69H45V70V71H185V70ZM20 45M45 70V69C31.7452 69 21 58.2548 21 45H20H19C19 59.3594 30.6406 71 45 71V70ZM210 45H209C209 58.2548 198.255 69 185 69V70V71C199.359 71 211 59.3594 211 45H210ZM185 20V21C198.255 21 209 31.7452 209 45H210H211C211 30.6406 199.359 19 185 19V20ZM45 20V19C30.6406 19 19 30.6406 19 45H20H21C21 31.7452 31.7452 21 45 21V20Z" fill="#E5E7EB" mask="url(#path-2-inside-1_2482_2384)"/>
<path d="M91.555 51V39.8H93.155V49.608H99.219V51H91.555ZM104.354 51.096C103.5 51.096 102.743 50.9093 102.082 50.536C101.42 50.1627 100.898 49.6507 100.514 49C100.13 48.3387 99.9376 47.592 99.9376 46.76C99.9376 45.9173 100.13 45.1707 100.514 44.52C100.898 43.8693 101.42 43.3627 102.082 43C102.743 42.6267 103.5 42.44 104.354 42.44C105.196 42.44 105.948 42.6267 106.61 43C107.282 43.3627 107.804 43.8693 108.178 44.52C108.562 45.16 108.754 45.9067 108.754 46.76C108.754 47.6027 108.562 48.3493 108.178 49C107.804 49.6507 107.282 50.1627 106.61 50.536C105.948 50.9093 105.196 51.096 104.354 51.096ZM104.354 49.752C104.898 49.752 105.383 49.6293 105.81 49.384C106.247 49.1387 106.588 48.792 106.834 48.344C107.079 47.8853 107.202 47.3573 107.202 46.76C107.202 46.152 107.079 45.6293 106.834 45.192C106.588 44.744 106.247 44.3973 105.81 44.152C105.383 43.9067 104.898 43.784 104.354 43.784C103.81 43.784 103.324 43.9067 102.898 44.152C102.471 44.3973 102.13 44.744 101.874 45.192C101.618 45.6293 101.49 46.152 101.49 46.76C101.49 47.3573 101.618 47.8853 101.874 48.344C102.13 48.792 102.471 49.1387 102.898 49.384C103.324 49.6293 103.81 49.752 104.354 49.752ZM114.59 54.2C113.811 54.2 113.054 54.088 112.318 53.864C111.593 53.6507 111.001 53.3413 110.542 52.936L111.278 51.752C111.673 52.0933 112.158 52.36 112.734 52.552C113.31 52.7547 113.913 52.856 114.542 52.856C115.545 52.856 116.281 52.6213 116.75 52.152C117.219 51.6827 117.454 50.968 117.454 50.008V48.216L117.614 46.536L117.534 44.84V42.52H118.99V49.848C118.99 51.3413 118.617 52.44 117.87 53.144C117.123 53.848 116.03 54.2 114.59 54.2ZM114.398 50.648C113.577 50.648 112.841 50.4773 112.19 50.136C111.55 49.784 111.038 49.2987 110.654 48.68C110.281 48.0613 110.094 47.3467 110.094 46.536C110.094 45.7147 110.281 45 110.654 44.392C111.038 43.7733 111.55 43.2933 112.19 42.952C112.841 42.6107 113.577 42.44 114.398 42.44C115.123 42.44 115.785 42.5893 116.382 42.888C116.979 43.176 117.454 43.624 117.806 44.232C118.169 44.84 118.35 45.608 118.35 46.536C118.35 47.4533 118.169 48.216 117.806 48.824C117.454 49.432 116.979 49.8907 116.382 50.2C115.785 50.4987 115.123 50.648 114.398 50.648ZM114.574 49.304C115.139 49.304 115.641 49.1867 116.078 48.952C116.515 48.7173 116.857 48.392 117.102 47.976C117.358 47.56 117.486 47.08 117.486 46.536C117.486 45.992 117.358 45.512 117.102 45.096C116.857 44.68 116.515 44.36 116.078 44.136C115.641 43.9013 115.139 43.784 114.574 43.784C114.009 43.784 113.502 43.9013 113.054 44.136C112.617 44.36 112.27 44.68 112.014 45.096C111.769 45.512 111.646 45.992 111.646 46.536C111.646 47.08 111.769 47.56 112.014 47.976C112.27 48.392 112.617 48.7173 113.054 48.952C113.502 49.1867 114.009 49.304 114.574 49.304ZM126.222 51V42.52H127.758V51H126.222ZM126.99 40.888C126.691 40.888 126.44 40.792 126.238 40.6C126.046 40.408 125.95 40.1733 125.95 39.896C125.95 39.608 126.046 39.368 126.238 39.176C126.44 38.984 126.691 38.888 126.99 38.888C127.288 38.888 127.534 38.984 127.726 39.176C127.928 39.3573 128.03 39.5867 128.03 39.864C128.03 40.152 127.934 40.3973 127.742 40.6C127.55 40.792 127.299 40.888 126.99 40.888ZM130.69 51V42.52H132.162V44.808L131.922 44.2C132.2 43.6453 132.626 43.2133 133.202 42.904C133.778 42.5947 134.45 42.44 135.218 42.44C135.912 42.44 136.52 42.5733 137.042 42.84C137.576 43.1067 137.992 43.512 138.29 44.056C138.589 44.6 138.738 45.288 138.738 46.12V51H137.202V46.296C137.202 45.4747 137 44.856 136.594 44.44C136.2 44.024 135.64 43.816 134.914 43.816C134.37 43.816 133.896 43.9227 133.49 44.136C133.085 44.3493 132.77 44.664 132.546 45.08C132.333 45.496 132.226 46.0133 132.226 46.632V51H130.69Z" fill="#364153"/>
<mask id="path-5-inside-2_2482_2384" fill="white">
<path d="M20 115C20 101.193 31.1929 90 45 90H185C198.807 90 210 101.193 210 115C210 128.807 198.807 140 185 140H45C31.1929 140 20 128.807 20 115Z"/>
</mask>
<path d="M20 115C20 101.193 31.1929 90 45 90H185C198.807 90 210 101.193 210 115C210 128.807 198.807 140 185 140H45C31.1929 140 20 128.807 20 115Z" fill="#6E8C47" fill-opacity="0.5"/>
<path d="M20 115M210 115M210 115M20 115M45 90V91H185V90V89H45V90ZM210 115M185 140V139H45V140V141H185V140ZM20 115M45 140V139C31.7452 139 21 128.255 21 115H20H19C19 129.359 30.6406 141 45 141V140ZM210 115H209C209 128.255 198.255 139 185 139V140V141C199.359 141 211 129.359 211 115H210ZM185 90V91C198.255 91 209 101.745 209 115H210H211C211 100.641 199.359 89 185 89V90ZM45 90V89C30.6406 89 19 100.641 19 115H20H21C21 101.745 31.7452 91 45 91V90Z" fill="#E5E7EB" mask="url(#path-5-inside-2_2482_2384)"/>
<path d="M91.555 121V109.8H93.155V119.608H99.219V121H91.555ZM104.354 121.096C103.5 121.096 102.743 120.909 102.082 120.536C101.42 120.163 100.898 119.651 100.514 119C100.13 118.339 99.9376 117.592 99.9376 116.76C99.9376 115.917 100.13 115.171 100.514 114.52C100.898 113.869 101.42 113.363 102.082 113C102.743 112.627 103.5 112.44 104.354 112.44C105.196 112.44 105.948 112.627 106.61 113C107.282 113.363 107.804 113.869 108.178 114.52C108.562 115.16 108.754 115.907 108.754 116.76C108.754 117.603 108.562 118.349 108.178 119C107.804 119.651 107.282 120.163 106.61 120.536C105.948 120.909 105.196 121.096 104.354 121.096ZM104.354 119.752C104.898 119.752 105.383 119.629 105.81 119.384C106.247 119.139 106.588 118.792 106.834 118.344C107.079 117.885 107.202 117.357 107.202 116.76C107.202 116.152 107.079 115.629 106.834 115.192C106.588 114.744 106.247 114.397 105.81 114.152C105.383 113.907 104.898 113.784 104.354 113.784C103.81 113.784 103.324 113.907 102.898 114.152C102.471 114.397 102.13 114.744 101.874 115.192C101.618 115.629 101.49 116.152 101.49 116.76C101.49 117.357 101.618 117.885 101.874 118.344C102.13 118.792 102.471 119.139 102.898 119.384C103.324 119.629 103.81 119.752 104.354 119.752ZM114.59 124.2C113.811 124.2 113.054 124.088 112.318 123.864C111.593 123.651 111.001 123.341 110.542 122.936L111.278 121.752C111.673 122.093 112.158 122.36 112.734 122.552C113.31 122.755 113.913 122.856 114.542 122.856C115.545 122.856 116.281 122.621 116.75 122.152C117.219 121.683 117.454 120.968 117.454 120.008V118.216L117.614 116.536L117.534 114.84V112.52H118.99V119.848C118.99 121.341 118.617 122.44 117.87 123.144C117.123 123.848 116.03 124.2 114.59 124.2ZM114.398 120.648C113.577 120.648 112.841 120.477 112.19 120.136C111.55 119.784 111.038 119.299 110.654 118.68C110.281 118.061 110.094 117.347 110.094 116.536C110.094 115.715 110.281 115 110.654 114.392C111.038 113.773 111.55 113.293 112.19 112.952C112.841 112.611 113.577 112.44 114.398 112.44C115.123 112.44 115.785 112.589 116.382 112.888C116.979 113.176 117.454 113.624 117.806 114.232C118.169 114.84 118.35 115.608 118.35 116.536C118.35 117.453 118.169 118.216 117.806 118.824C117.454 119.432 116.979 119.891 116.382 120.2C115.785 120.499 115.123 120.648 114.398 120.648ZM114.574 119.304C115.139 119.304 115.641 119.187 116.078 118.952C116.515 118.717 116.857 118.392 117.102 117.976C117.358 117.56 117.486 117.08 117.486 116.536C117.486 115.992 117.358 115.512 117.102 115.096C116.857 114.68 116.515 114.36 116.078 114.136C115.641 113.901 115.139 113.784 114.574 113.784C114.009 113.784 113.502 113.901 113.054 114.136C112.617 114.36 112.27 114.68 112.014 115.096C111.769 115.512 111.646 115.992 111.646 116.536C111.646 117.08 111.769 117.56 112.014 117.976C112.27 118.392 112.617 118.717 113.054 118.952C113.502 119.187 114.009 119.304 114.574 119.304ZM126.222 121V112.52H127.758V121H126.222ZM126.99 110.888C126.691 110.888 126.44 110.792 126.238 110.6C126.046 110.408 125.95 110.173 125.95 109.896C125.95 109.608 126.046 109.368 126.238 109.176C126.44 108.984 126.691 108.888 126.99 108.888C127.288 108.888 127.534 108.984 127.726 109.176C127.928 109.357 128.03 109.587 128.03 109.864C128.03 110.152 127.934 110.397 127.742 110.6C127.55 110.792 127.299 110.888 126.99 110.888ZM130.69 121V112.52H132.162V114.808L131.922 114.2C132.2 113.645 132.626 113.213 133.202 112.904C133.778 112.595 134.45 112.44 135.218 112.44C135.912 112.44 136.52 112.573 137.042 112.84C137.576 113.107 137.992 113.512 138.29 114.056C138.589 114.6 138.738 115.288 138.738 116.12V121H137.202V116.296C137.202 115.475 137 114.856 136.594 114.44C136.2 114.024 135.64 113.816 134.914 113.816C134.37 113.816 133.896 113.923 133.49 114.136C133.085 114.349 132.77 114.664 132.546 115.08C132.333 115.496 132.226 116.013 132.226 116.632V121H130.69Z" fill="#364153"/>
<g filter="url(#filter0_dd_2482_2384)">
<path d="M20 185C20 171.193 31.1929 160 45 160H185C198.807 160 210 171.193 210 185C210 198.807 198.807 210 185 210H45C31.1929 210 20 198.807 20 185Z" fill="#6E8C47"/>
<path d="M91.555 191V179.8H93.155V189.608H99.219V191H91.555ZM104.354 191.096C103.5 191.096 102.743 190.909 102.082 190.536C101.42 190.163 100.898 189.651 100.514 189C100.13 188.339 99.9376 187.592 99.9376 186.76C99.9376 185.917 100.13 185.171 100.514 184.52C100.898 183.869 101.42 183.363 102.082 183C102.743 182.627 103.5 182.44 104.354 182.44C105.196 182.44 105.948 182.627 106.61 183C107.282 183.363 107.804 183.869 108.178 184.52C108.562 185.16 108.754 185.907 108.754 186.76C108.754 187.603 108.562 188.349 108.178 189C107.804 189.651 107.282 190.163 106.61 190.536C105.948 190.909 105.196 191.096 104.354 191.096ZM104.354 189.752C104.898 189.752 105.383 189.629 105.81 189.384C106.247 189.139 106.588 188.792 106.834 188.344C107.079 187.885 107.202 187.357 107.202 186.76C107.202 186.152 107.079 185.629 106.834 185.192C106.588 184.744 106.247 184.397 105.81 184.152C105.383 183.907 104.898 183.784 104.354 183.784C103.81 183.784 103.324 183.907 102.898 184.152C102.471 184.397 102.13 184.744 101.874 185.192C101.618 185.629 101.49 186.152 101.49 186.76C101.49 187.357 101.618 187.885 101.874 188.344C102.13 188.792 102.471 189.139 102.898 189.384C103.324 189.629 103.81 189.752 104.354 189.752ZM114.59 194.2C113.811 194.2 113.054 194.088 112.318 193.864C111.593 193.651 111.001 193.341 110.542 192.936L111.278 191.752C111.673 192.093 112.158 192.36 112.734 192.552C113.31 192.755 113.913 192.856 114.542 192.856C115.545 192.856 116.281 192.621 116.75 192.152C117.219 191.683 117.454 190.968 117.454 190.008V188.216L117.614 186.536L117.534 184.84V182.52H118.99V189.848C118.99 191.341 118.617 192.44 117.87 193.144C117.123 193.848 116.03 194.2 114.59 194.2ZM114.398 190.648C113.577 190.648 112.841 190.477 112.19 190.136C111.55 189.784 111.038 189.299 110.654 188.68C110.281 188.061 110.094 187.347 110.094 186.536C110.094 185.715 110.281 185 110.654 184.392C111.038 183.773 111.55 183.293 112.19 182.952C112.841 182.611 113.577 182.44 114.398 182.44C115.123 182.44 115.785 182.589 116.382 182.888C116.979 183.176 117.454 183.624 117.806 184.232C118.169 184.84 118.35 185.608 118.35 186.536C118.35 187.453 118.169 188.216 117.806 188.824C117.454 189.432 116.979 189.891 116.382 190.2C115.785 190.499 115.123 190.648 114.398 190.648ZM114.574 189.304C115.139 189.304 115.641 189.187 116.078 188.952C116.515 188.717 116.857 188.392 117.102 187.976C117.358 187.56 117.486 187.08 117.486 186.536C117.486 185.992 117.358 185.512 117.102 185.096C116.857 184.68 116.515 184.36 116.078 184.136C115.641 183.901 115.139 183.784 114.574 183.784C114.009 183.784 113.502 183.901 113.054 184.136C112.617 184.36 112.27 184.68 112.014 185.096C111.769 185.512 111.646 185.992 111.646 186.536C111.646 187.08 111.769 187.56 112.014 187.976C112.27 188.392 112.617 188.717 113.054 188.952C113.502 189.187 114.009 189.304 114.574 189.304ZM126.222 191V182.52H127.758V191H126.222ZM126.99 180.888C126.691 180.888 126.44 180.792 126.238 180.6C126.046 180.408 125.95 180.173 125.95 179.896C125.95 179.608 126.046 179.368 126.238 179.176C126.44 178.984 126.691 178.888 126.99 178.888C127.288 178.888 127.534 178.984 127.726 179.176C127.928 179.357 128.03 179.587 128.03 179.864C128.03 180.152 127.934 180.397 127.742 180.6C127.55 180.792 127.299 180.888 126.99 180.888ZM130.69 191V182.52H132.162V184.808L131.922 184.2C132.2 183.645 132.626 183.213 133.202 182.904C133.778 182.595 134.45 182.44 135.218 182.44C135.912 182.44 136.52 182.573 137.042 182.84C137.576 183.107 137.992 183.512 138.29 184.056C138.589 184.6 138.738 185.288 138.738 186.12V191H137.202V186.296C137.202 185.475 137 184.856 136.594 184.44C136.2 184.024 135.64 183.816 134.914 183.816C134.37 183.816 133.896 183.923 133.49 184.136C133.085 184.349 132.77 184.664 132.546 185.08C132.333 185.496 132.226 186.013 132.226 186.632V191H130.69Z" fill="white"/>
</g>
<defs>
<filter id="filter0_dd_2482_2384" x="16" y="160" width="198" height="58" filterUnits="userSpaceOnUse" color-interpolation-filters="sRGB">
<feFlood flood-opacity="0" result="BackgroundImageFix"/>
<feColorMatrix in="SourceAlpha" type="matrix" values="0 0 0 0 0 0 0 0 0 0 0 0 0 0 0 0 0 0 127 0" result="hardAlpha"/>
<feOffset dy="4"/>
<feGaussianBlur stdDeviation="2"/>
<feComposite in2="hardAlpha" operator="out"/>
<feColorMatrix type="matrix" values="0 0 0 0 0 0 0 0 0 0 0 0 0 0 0 0 0 0 0.25 0"/>
<feBlend mode="normal" in2="BackgroundImageFix" result="effect1_dropShadow_2482_2384"/>
<feColorMatrix in="SourceAlpha" type="matrix" values="0 0 0 0 0 0 0 0 0 0 0 0 0 0 0 0 0 0 127 0" result="hardAlpha"/>
<feMorphology radius="3" operator="erode" in="SourceAlpha" result="effect2_dropShadow_2482_2384"/>
<feOffset dy="4"/>
<feGaussianBlur stdDeviation="3"/>
<feComposite in2="hardAlpha" operator="out"/>
<feColorMatrix type="matrix" values="0 0 0 0 0 0 0 0 0 0 0 0 0 0 0 0 0 0 0.1 0"/>
<feBlend mode="normal" in2="effect1_dropShadow_2482_2384" result="effect2_dropShadow_2482_2384"/>
<feBlend mode="normal" in="SourceGraphic" in2="effect2_dropShadow_2482_2384" result="shape"/>
</filter>
</defs>
</svg>
